<svg id="Layer_1" data-name="Layer 1" xmlns="http://www.w3.org/2000/svg" xmlns:xlink="http://www.w3.org/1999/xlink" viewBox="0 0 512 512"><defs><style>.cls-1{fill:url(#linear-gradient);}.cls-2{fill:url(#linear-gradient-2);}</style><linearGradient id="linear-gradient" x1="109.84" y1="317.19" x2="402.16" y2="317.19" gradientUnits="userSpaceOnUse"><stop offset="0" stop-color="#34abfe"/><stop offset="1" stop-color="#ad90fe"/></linearGradient><linearGradient id="linear-gradient-2" x1="109.84" y1="195.64" x2="401.69" y2="195.64" gradientUnits="userSpaceOnUse"><stop offset="0" stop-color="#6935fe"/><stop offset="1" stop-color="#ad90fe"/></linearGradient></defs><path class="cls-1" d="M122.17,420.46h0a12.34,12.34,0,0,1-12.28-12.38l.24-72.38a12.33,12.33,0,0,1,12.33-12.29h0a12.33,12.33,0,0,1,12.29,12.37l-.07,19.49,1.22-1a79.79,79.79,0,0,1,18.32-11.44,82.35,82.35,0,0,1,7.77-3.05,86,86,0,0,1,27.47-4.41l132.77.59h.17c30.28,0,55-21.74,55.1-48.53.05-11.86-4.81-23.3-13.67-32.22-10.42-10.49-25.44-16.54-41.21-16.58L189.85,238h-.16c-30.07,0-54.61,21.58-54.71,48.18l-.09.17a12.33,12.33,0,0,1-12.33,12.21h-.12a12.32,12.32,0,0,1-12.21-12.44l.09-.1c.15-40.09,35.75-71.82,79.39-71.82h3.52l129.48-.26c22.24.06,43.61,8.75,58.62,23.86,13.5,13.59,20.9,31.24,20.83,49.69-.16,40.36-35.93,73.1-79.78,73.11h-.23L189.38,360a62.06,62.06,0,0,0-19.54,3.13,57.23,57.23,0,0,0-5.46,2.14,55.58,55.58,0,0,0-12.69,7.91,48.85,48.85,0,0,0-12.57,15.72,43.2,43.2,0,0,0-4.62,19.28A12.33,12.33,0,0,1,122.17,420.46Z"/><path class="cls-2" d="M122.56,299.73a12.34,12.34,0,0,1-12.33-12.29l-.39-122c-.13-40.24,35.36-73.09,79.12-73.24l132.72-.67H322c43.86,0,79.59,32.73,79.72,73.07.06,19.82-8.33,38.42-23.64,52.35a83,83,0,0,1-55.87,21.24l-132.72.67c-14.87,0-28.75,5.26-39.11,14.69-10,9.12-15.49,21.12-15.45,33.8h0a12.34,12.34,0,0,1-12.3,12.37ZM322,116.21h-.2l-132.73.67c-30.18.09-54.65,21.85-54.56,48.49l.22,69.09a82.74,82.74,0,0,1,54.63-20.26l132.73-.67a58.38,58.38,0,0,0,39.37-14.8c10.09-9.19,15.62-21.27,15.58-34C376.94,137.92,352.27,116.21,322,116.21Z"/></svg>